<svg xmlns="http://www.w3.org/2000/svg" viewBox="0 0 2504.36 2872.35" role="img" aria-label="Command Applications">
  <defs>
    <style>
      .fil0 { fill: #FFFFFF; fill-rule: nonzero; }
      .fil1 { fill: #3B82F6; fill-rule: nonzero; }
    </style>
  </defs>
  <path class="fil0" d="M2500.8 433.43l-0.53 -378.69c0,-19.74 -10.19,-36.02 -24.72,-45.45 -0.98,-0.58 -1.92,-1.22 -2.91,-1.75l-0.41 -0.23c-15.84,-9.15 -36.18,-10.37 -54.31,0.11l-327.63 189.77 -384.86 223.01c-7.22,4.13 -7.22,14.57 0,18.77l382.7 220.2c3.39,1.92 5.48,5.47 5.48,9.39l0.65 469.02 -1.87 -1.11 2.22 1508.3c0.05,19.41 10.43,37.37 27.28,47.11l300.93 173.1c36.36,20.93 81.6,-5.3 81.54,-47.15l-3.56 -2384.41z"/>
  <path class="fil1" d="M1687.3 903.41l-389.52 -224.1c-12.3,-7.11 -27.44,-7.06 -39.75,0.07l-391.39 226.78 -839.48 486.34c-36.26,20.98 -36.2,73.32 0.11,94.19l1543.35 887.99c26.52,15.26 59.63,-3.92 59.56,-34.52l-0.57 -383.46c0,-14.22 -7.59,-27.34 -19.88,-34.45l-783.35 -450.67c-26.52,-15.27 -26.58,-53.5 -0.11,-68.83l430.31 -249.35c12.31,-7.1 27.46,-7.1 39.75,-0.07l331.99 191.08c26.52,15.2 59.63,-3.92 59.58,-34.52l-0.59 -406.01 0 -0.48z"/>
</svg>
