<svg xmlns="http://www.w3.org/2000/svg" viewBox="0 0 5157.69 1015.39" role="img" aria-label="Command Applications">
  <defs>
    <style>
      .fil0 { fill: #FFFFFF; fill-rule: nonzero; }
      .fil1 { fill: #3B82F6; fill-rule: nonzero; }
    </style>
  </defs>
  <g id="_8WF">
    <path class="fil0" d="M836.71 145.02l-0.18 -126.7c0,-6.61 -3.41,-12.05 -8.27,-15.21 -0.33,-0.19 -0.64,-0.41 -0.97,-0.59l-0.14 -0.07c-5.3,-3.06 -12.11,-3.47 -18.17,0.04l-109.61 63.5 -128.77 74.61c-2.41,1.38 -2.41,4.87 0,6.28l128.04 73.67c1.13,0.64 1.83,1.83 1.83,3.14l0.22 156.93 -0.63 -0.37 0.74 504.64c0.02,6.5 3.49,12.5 9.13,15.76l100.69 57.91c12.17,7 27.3,-1.77 27.28,-15.78l-1.19 -797.77z"/>
    <path class="fil1" d="M564.53 302.26l-130.32 -74.98c-4.11,-2.38 -9.18,-2.36 -13.3,0.02l-130.95 75.87 -280.87 162.72c-12.13,7.02 -12.11,24.53 0.04,31.51l516.37 297.1c8.87,5.11 19.95,-1.31 19.93,-11.55l-0.2 -128.3c0,-4.76 -2.54,-9.15 -6.65,-11.52l-262.09 -150.78c-8.87,-5.11 -8.89,-17.9 -0.04,-23.03l143.97 -83.43c4.12,-2.37 9.19,-2.37 13.3,-0.02l111.08 63.93c8.87,5.09 19.95,-1.31 19.93,-11.55l-0.2 -135.84 0 -0.16z"/>
  </g>
  <g id="_8WT">
    <path class="fil0" d="M1647.47 73.66l0 116.5 -119.32 0 0 -54.94c0,-9.47 -8.52,-17.04 -18.94,-17.04l-208.37 0c-10.42,0 -18.92,7.57 -18.92,17.04l0 393.96c0,9.48 8.5,17.05 18.92,17.05l208.37 0c10.41,0 18.94,-7.57 18.94,-17.05l0 -54.91 119.32 0 0 116.48c0,39.78 -36,72.92 -79.54,72.92l-325.78 0c-43.58,0 -79.55,-33.13 -79.55,-72.92l0 -517.09c0,-39.78 35.96,-72.91 79.55,-72.91l325.78 0c43.55,0 79.54,33.13 79.54,72.91z"/>
    <path class="fil0" d="M2031.96 118.17l-208.37 0c-10.41,0 -18.91,7.57 -18.91,17.04l0 393.96c0,9.47 8.5,17.04 18.91,17.04l208.37 0c10.41,0 18.93,-7.57 18.93,-17.04l0 -393.96c0,-9.48 -8.52,-17.04 -18.93,-17.04zm138.26 -44.52l0 517.09c0,39.78 -35.98,72.91 -79.55,72.91l-325.78 0c-43.56,0 -79.54,-33.14 -79.54,-72.91l0 -517.09c0,-39.76 35.98,-72.91 79.54,-72.91l325.78 0c43.57,0 79.55,33.15 79.55,72.91z"/>
    <polygon class="fil0" points="2854.91,663.67 2735.6,663.67 2735.6,175 2596.38,546.23 2481.8,546.23 2342.58,175 2342.58,663.67 2223.25,663.67 2223.25,0.73 2400.34,0.73 2539.56,387.12 2677.82,0.73 2854.91,0.73"/>
    <polygon class="fil0" points="3539.61,663.67 3420.3,663.67 3420.3,175 3281.08,546.23 3166.49,546.23 3027.27,175 3027.27,663.67 2907.95,663.67 2907.95,0.73 3085.04,0.73 3224.25,387.12 3362.52,0.73 3539.61,0.73"/>
    <path class="fil0" d="M3909.92 390.91l-71.98 -213.09 -71.98 213.09 143.96 0zm39.78 117.43l-223.5 0 -52.09 155.33 -127.85 0 232.02 -662.94 119.32 0 232.03 662.94 -127.85 0 -52.09 -155.33z"/>
    <polygon class="fil0" points="4619.24,0.74 4619.24,663.67 4482.87,663.67 4255.59,228.98 4255.59,663.67 4136.26,663.67 4136.26,0.74 4271.67,0.74 4499.91,437.32 4499.91,0.74"/>
    <path class="fil0" d="M5016.98 118.17l-225.39 0 0 428.05 225.39 0c10.42,0 18.94,-7.57 18.94,-17.04l0 -393.96c0,-9.48 -8.52,-17.04 -18.94,-17.04zm138.26 -44.52l0 517.09c0,39.78 -35.98,72.91 -79.55,72.91l-403.43 0 0 -662.92 403.43 0c43.57,0 79.55,33.15 79.55,72.91z"/>
    <path class="fil0" d="M1268.52 892.63l-24.71 -70.32 -25.7 70.32 50.41 0zm-40.07 -109.91l30.75 0 68.06 178.96 -35.81 0 -16.61 -44.62 -62.52 0 -16.38 44.62 -35.79 0 68.3 -178.96z"/>
    <path class="fil0" d="M1638.25 935.47c5.03,0 9.69,-1.07 14,-3.28 4.27,-2.19 7.94,-5.11 10.94,-8.81 3.04,-3.69 5.38,-7.98 7.07,-12.85 1.66,-4.87 2.52,-9.93 2.52,-15.13 0,-5.53 -0.93,-10.7 -2.79,-15.48 -1.83,-4.79 -4.39,-8.95 -7.66,-12.5 -3.28,-3.51 -7.16,-6.28 -11.6,-8.31 -4.45,-2 -9.29,-3.02 -14.49,-3.02 -3.2,0 -6.47,0.57 -9.83,1.64 -3.37,1.09 -6.47,2.65 -9.32,4.66 -2.86,2.03 -5.42,4.37 -7.7,7.06 -2.26,2.69 -4,5.64 -5.17,8.83l0 30.99c3.04,7.57 7.66,13.82 13.87,18.78 6.22,4.97 12.95,7.43 20.17,7.43zm11.35 28.74c-10.41,0 -19.5,-2.32 -27.22,-6.94 -7.72,-4.62 -13.76,-10.86 -18.15,-18.78l0 76.89 -33.76 0 0 -185.77 29.48 0 0 22.68c4.86,-7.72 11.18,-13.81 18.9,-18.25 7.74,-4.47 16.63,-6.69 26.71,-6.69 8.91,0 17.14,1.81 24.7,5.42 7.55,3.61 14.06,8.48 19.52,14.63 5.46,6.12 9.75,13.34 12.85,21.67 3.09,8.31 4.66,17.1 4.66,26.32 0,9.6 -1.43,18.57 -4.28,26.99 -2.87,8.39 -6.84,15.7 -11.97,21.92 -5.13,6.2 -11.23,11.08 -18.28,14.63 -7.06,3.51 -14.8,5.29 -23.19,5.29z"/>
    <path class="fil0" d="M2024.88 935.47c5.03,0 9.69,-1.07 14,-3.28 4.27,-2.19 7.94,-5.11 10.94,-8.81 3.04,-3.69 5.38,-7.98 7.08,-12.85 1.66,-4.87 2.52,-9.93 2.52,-15.13 0,-5.53 -0.93,-10.7 -2.79,-15.48 -1.83,-4.79 -4.38,-8.95 -7.66,-12.5 -3.28,-3.51 -7.16,-6.28 -11.6,-8.31 -4.44,-2 -9.28,-3.02 -14.49,-3.02 -3.2,0 -6.47,0.57 -9.83,1.64 -3.37,1.09 -6.47,2.65 -9.32,4.66 -2.87,2.03 -5.42,4.37 -7.7,7.06 -2.26,2.69 -4,5.64 -5.17,8.83l0 30.99c3.05,7.57 7.67,13.82 13.87,18.78 6.22,4.97 12.95,7.43 20.17,7.43zm11.35 28.74c-10.41,0 -19.5,-2.32 -27.22,-6.94 -7.72,-4.62 -13.77,-10.86 -18.16,-18.78l0 76.89 -33.75 0 0 -185.77 29.48 0 0 22.68c4.85,-7.72 11.17,-13.81 18.89,-18.25 7.74,-4.47 16.63,-6.69 26.72,-6.69 8.91,0 17.14,1.81 24.71,5.42 7.55,3.61 14.06,8.48 19.52,14.63 5.46,6.12 9.75,13.34 12.85,21.67 3.1,8.31 4.66,17.1 4.66,26.32 0,9.6 -1.42,18.57 -4.27,26.99 -2.86,8.39 -6.84,15.7 -11.97,21.92 -5.13,6.2 -11.23,11.08 -18.27,14.63 -7.06,3.51 -14.8,5.29 -23.19,5.29z"/>
    <path class="fil0" d="M2343.45 777.7l33.78 0 0 141.65c0,4.88 1.17,8.66 3.53,11.35 2.34,2.69 5.71,4.04 10.08,4.04 2.03,0 4.23,-0.35 6.69,-1.04 2.42,-0.66 4.74,-1.5 6.92,-2.52l4.53 25.7c-4.53,2.21 -9.83,3.88 -15.87,5.06 -6.04,1.17 -11.5,1.75 -16.38,1.75 -10.57,0 -18.78,-2.81 -24.57,-8.43 -5.8,-5.63 -8.7,-13.67 -8.7,-24.09l0 -153.49z"/>
    <path class="fil0" d="M2650.44 829.62l33.76 0 0 132.06 -33.76 0 0 -132.06zm0 -51.93l33.76 0 0 33.54 -33.76 0 0 -33.54z"/>
    <path class="fil0" d="M2933.21 895.65c0,-9.23 1.62,-17.96 4.8,-26.21 3.19,-8.23 7.81,-15.44 13.86,-21.67 6.04,-6.22 13.36,-11.17 21.92,-14.87 8.58,-3.69 18.24,-5.54 28.98,-5.54 14.47,0 26.78,3.1 36.94,9.32 10.16,6.22 17.76,14.37 22.8,24.46l-33.02 10.08c-2.85,-4.88 -6.63,-8.6 -11.32,-11.22 -4.72,-2.59 -9.93,-3.9 -15.62,-3.9 -4.88,0 -9.42,0.96 -13.61,2.89 -4.21,1.93 -7.86,4.62 -10.96,8.07 -3.12,3.43 -5.56,7.61 -7.31,12.46 -1.78,4.87 -2.65,10.26 -2.65,16.13 0,5.89 0.92,11.27 2.77,16.15 1.85,4.85 4.33,9.07 7.43,12.6 3.13,3.51 6.77,6.26 10.98,8.17 4.17,1.95 8.66,2.91 13.36,2.91 6.05,0 11.62,-1.5 16.75,-4.53 5.13,-3.04 8.7,-6.73 10.71,-11.08l33.03 10.07c-4.54,10.08 -12.01,18.33 -22.44,24.71 -10.41,6.39 -22.94,9.57 -37.54,9.57 -10.77,0 -20.42,-1.85 -28.98,-5.56 -8.59,-3.69 -15.89,-8.69 -21.93,-14.97 -6.05,-6.32 -10.71,-13.63 -13.98,-21.94 -3.28,-8.33 -4.93,-17.03 -4.93,-26.09z"/>
    <path class="fil0" d="M3356.12 939.51c5.71,0 11.13,-1 16.28,-3 5.11,-2.03 9.11,-4.72 11.96,-8.07 3.69,-2.86 5.54,-6.04 5.54,-9.59l0 -15.12c-4.04,-1.52 -8.39,-2.73 -13.11,-3.67 -4.7,-0.9 -9.24,-1.38 -13.61,-1.38 -8.74,0 -15.87,1.97 -21.41,5.94 -5.56,3.94 -8.33,8.93 -8.33,14.98 0,5.72 2.19,10.45 6.55,14.26 4.39,3.78 9.75,5.66 16.13,5.66zm-9.58 24.71c-6.37,0 -12.34,-1.06 -17.9,-3.14 -5.52,-2.11 -10.31,-5.05 -14.35,-8.83 -4.04,-3.77 -7.18,-8.19 -9.46,-13.22 -2.26,-5.05 -3.39,-10.59 -3.39,-16.63 0,-6.22 1.38,-11.97 4.15,-17.28 2.77,-5.28 6.63,-9.79 11.6,-13.48 4.95,-3.68 10.86,-6.59 17.76,-8.7 6.88,-2.11 14.45,-3.16 22.68,-3.16 5.89,0 11.62,0.51 17.28,1.53 5.62,0.99 10.61,2.44 14.98,4.27l0 -7.55c0,-8.74 -2.48,-15.47 -7.43,-20.17 -4.95,-4.7 -12.3,-7.06 -22.04,-7.06 -7.07,0 -13.96,1.27 -20.67,3.78 -6.73,2.52 -13.63,6.2 -20.67,11.08l-10.35 -21.41c16.99,-11.27 35.3,-16.89 54.98,-16.89 18.97,0 33.71,4.66 44.2,14 10.52,9.32 15.76,22.8 15.76,40.44l0 41.07c0,3.55 0.63,6.06 1.89,7.57 1.27,1.5 3.32,2.35 6.18,2.52l0 28.74c-5.71,1.17 -10.69,1.75 -14.86,1.75 -6.41,0 -11.31,-1.42 -14.76,-4.29 -3.46,-2.85 -5.6,-6.63 -6.44,-11.35l-0.74 -7.3c-5.89,7.74 -13.02,13.61 -21.43,17.65 -8.4,4.04 -17.39,6.05 -26.97,6.05z"/>
    <path class="fil0" d="M3760.14 954.89c-4.54,2.01 -10.08,4.04 -16.63,6.05 -6.55,2.03 -13.45,3.02 -20.67,3.02 -4.7,0 -9.1,-0.58 -13.24,-1.75 -4.11,-1.17 -7.72,-3.06 -10.84,-5.68 -3.1,-2.61 -5.58,-5.95 -7.41,-10.08 -1.87,-4.11 -2.77,-9.13 -2.77,-14.99l0 -75.88 -17.4 0 0 -25.95 17.4 0 0 -42.85 33.76 0 0 42.85 27.73 0 0 25.95 -27.73 0 0 64.53c0,4.7 1.23,8.04 3.65,9.95 2.46,1.93 5.42,2.9 8.95,2.9 3.55,0 6.96,-0.58 10.33,-1.75 3.36,-1.19 6.05,-2.18 8.08,-3.02l6.8 26.72z"/>
    <path class="fil0" d="M4004.63 829.62l33.76 0 0 132.06 -33.76 0 0 -132.06zm0 -51.93l33.76 0 0 33.54 -33.76 0 0 -33.54z"/>
    <path class="fil0" d="M4322.17 895.91c0,5.87 0.9,11.21 2.65,16.01 1.75,4.78 4.21,8.93 7.31,12.46 3.1,3.53 6.77,6.28 10.96,8.19 4.19,1.95 8.73,2.89 13.61,2.89 4.88,0 9.42,-0.93 13.62,-2.89 4.19,-1.91 7.86,-4.66 10.95,-8.19 3.1,-3.53 5.56,-7.72 7.31,-12.59 1.76,-4.88 2.65,-10.24 2.65,-16.15 0,-5.7 -0.89,-10.98 -2.65,-15.87 -1.75,-4.85 -4.21,-9.07 -7.31,-12.6 -3.09,-3.51 -6.76,-6.24 -10.95,-8.17 -4.2,-1.95 -8.74,-2.91 -13.62,-2.91 -4.87,0 -9.41,1 -13.61,3.01 -4.19,2.02 -7.86,4.79 -10.96,8.32 -3.09,3.55 -5.56,7.74 -7.31,12.62 -1.76,4.87 -2.65,10.16 -2.65,15.87zm34.53 68.29c-10.76,0 -20.41,-1.85 -28.98,-5.54 -8.56,-3.7 -15.85,-8.7 -21.82,-15 -5.97,-6.3 -10.53,-13.55 -13.73,-21.8 -3.18,-8.22 -4.8,-16.89 -4.8,-25.95 0,-9.24 1.62,-17.98 4.8,-26.23 3.2,-8.21 7.76,-15.48 13.73,-21.8 5.96,-6.28 13.26,-11.29 21.82,-14.98 8.56,-3.71 18.22,-5.56 28.98,-5.56 10.75,0 20.36,1.85 28.87,5.56 8.48,3.69 15.7,8.7 21.67,14.98 5.96,6.32 10.55,13.59 13.72,21.8 3.2,8.25 4.8,16.98 4.8,26.23 0,9.07 -1.6,17.73 -4.8,25.95 -3.18,8.25 -7.72,15.51 -13.59,21.8 -5.89,6.3 -13.11,11.29 -21.69,15 -8.56,3.69 -18.24,5.54 -28.98,5.54z"/>
    <path class="fil0" d="M4798.01 961.69l-33.76 0 0 -74.1c0,-10.59 -1.85,-18.31 -5.56,-23.19 -3.69,-4.85 -8.83,-7.31 -15.38,-7.31 -3.35,0 -6.79,0.69 -10.32,2.01 -3.52,1.36 -6.84,3.23 -9.94,5.69 -3.12,2.42 -5.93,5.32 -8.44,8.7 -2.54,3.35 -4.39,7.04 -5.56,11.07l0 77.13 -33.75 0 0 -132.06 30.48 0 0 24.43c4.85,-8.39 11.93,-14.95 21.18,-19.63 9.22,-4.7 19.63,-7.08 31.24,-7.08 8.25,0 14.96,1.52 20.19,4.54 5.19,3.02 9.22,6.98 12.07,11.84 2.87,4.87 4.84,10.43 5.93,16.63 1.09,6.22 1.63,12.54 1.63,18.92l0 82.41z"/>
    <path class="fil0" d="M5104.26 964.21c-11.09,0 -21.94,-1.76 -32.52,-5.28 -10.57,-3.55 -19.66,-8.58 -27.21,-15.13l12.6 -21.16c8.07,5.71 15.91,10.02 23.56,12.97 7.65,2.94 15.27,4.41 22.81,4.41 6.71,0 12.02,-1.26 15.88,-3.78 3.86,-2.52 5.81,-6.13 5.81,-10.85 0,-4.7 -2.28,-8.13 -6.81,-10.31 -4.54,-2.18 -11.93,-4.7 -22.19,-7.57 -8.56,-2.34 -15.87,-4.62 -21.93,-6.78 -6.05,-2.2 -10.9,-4.68 -14.61,-7.45 -3.69,-2.77 -6.37,-5.97 -8.07,-9.57 -1.68,-3.61 -2.52,-7.96 -2.52,-12.99 0,-6.7 1.3,-12.75 3.9,-18.14 2.61,-5.38 6.28,-9.96 10.98,-13.72 4.7,-3.8 10.2,-6.69 16.49,-8.7 6.3,-2.02 13.15,-3.04 20.56,-3.04 9.91,0 19.19,1.43 27.85,4.29 8.64,2.87 16.58,7.49 23.81,13.87l-13.59 20.4c-6.73,-5.04 -13.24,-8.74 -19.56,-11.08 -6.28,-2.36 -12.56,-3.53 -18.78,-3.53 -5.69,0 -10.49,1.17 -14.36,3.53 -3.86,2.34 -5.79,6.14 -5.79,11.35 0,2.34 0.45,4.27 1.38,5.79 0.92,1.5 2.4,2.87 4.41,4.02 2.02,1.19 4.67,2.34 7.94,3.42 3.28,1.09 7.35,2.24 12.22,3.41 9.07,2.34 16.83,4.7 23.32,7.04 6.46,2.36 11.76,5.05 15.88,8.07 4.09,3.04 7.13,6.51 9.06,10.45 1.94,3.94 2.91,8.69 2.91,14.26 0,12.93 -4.8,23.13 -14.37,30.61 -9.57,7.49 -22.6,11.21 -39.06,11.21z"/>
  </g>
</svg>
